<svg xmlns="http://www.w3.org/2000/svg" width="80" height="80" fill="none"><g clip-path="url(#a)"><path fill="#000" d="M68.036 73.52c.024.242.405.244.38.001a2.24 2.24 0 0 1 1.552-2.363c.796-.252 1.6.046 1.836.891.104.372.108.727.006 1.067h-.01c-.348-.007-.68.087-.998.225-.243.105-.582.272-.632.564-.058.335.328.556.61.598.346.052.663-.144.89-.39.168-.183.296-.381.392-.59.051.009.103.017.154.03.695.179 1.29.762 1.388 1.489.085.643-.415 1.029-1.002 1.145a1.809 1.809 0 0 0-.562-.522c-.439-.25-.905-.139-1.083.354-.02.058 0 .146.049.185.39.318.903.435 1.403.39.153.278.235.598.189.909-.079.53-.545 1.035-1.068 1.148-1.055.23-2.087-.897-2.395-1.794-.08-.23-.447-.131-.367.1a3.372 3.372 0 0 0 1.488 1.803c.575.326 1.286.424 1.866.052.59-.378.953-1.059.844-1.759a1.992 1.992 0 0 0-.166-.528c.12-.033.238-.071.35-.123.774-.356 1.012-1.145.69-1.914-.286-.684-.928-1.182-1.65-1.326.08-.313.09-.645.032-.986-.095-.543-.39-1.064-.897-1.315-.463-.228-1.01-.219-1.493-.058-1.145.382-1.92 1.506-1.796 2.718Zm4.099 2.703a1.56 1.56 0 0 1-.75-.212c.189-.243.563.02.75.212Zm-.494-2.718c-.014.025-.026.05-.041.075-.14.224-.359.504-.64.547a.498.498 0 0 1-.363-.102c-.08-.055-.06-.063.004-.129.169-.176.47-.268.698-.333.112-.032.227-.05.342-.058ZM67.744 74.471l-6.691-.012a.205.205 0 0 1 0-.41l6.691.013a.205.205 0 0 1 0 .41ZM67.63 76.273l-4.191-.007a.205.205 0 0 1 0-.41l4.191.008a.205.205 0 0 1 0 .41ZM24.189 49.507c-7.042 7.549-10.39 17.586-9.212 27.878.247 2.154 3.627 1.973 3.379-.195-1.083-9.455 1.887-18.493 8.36-25.432 1.488-1.596-1.041-3.844-2.527-2.251Z"/><path fill="#FF558B" d="M18.464 74.952s2.157-1.744-2.15-1.885c-4.617-.152-1.713 1.794-1.713 1.794l-.695.388s-4.957-3.95-6.842-.071c-1.885 3.88 3.477 4.585 6.766 4.666 3.29.081 6.815.854 4.634-4.892Z"/><path fill="#000" d="M16.148 80c-.433 0-.89-.02-1.353-.041a47.05 47.05 0 0 0-.967-.037c-2.6-.064-5.913-.491-6.928-2.159-.435-.714-.403-1.596.094-2.62.447-.92 1.103-1.483 1.95-1.675 1.152-.26 2.454.222 3.344.673.826.419 1.46.889 1.625 1.014l.542-.302c-.27-.2-.965-.772-.81-1.25.15-.468 1.024-.668 2.672-.615 1.637.054 2.556.35 2.734.878.16.48-.34.972-.494 1.11.761 2.025.86 3.385.302 4.157-.518.715-1.53.867-2.71.867Zm-6.513-6.45c-.223 0-.442.022-.656.07-.799.181-1.42.717-1.844 1.592-.473.973-.507 1.804-.101 2.47.442.726 1.913 1.963 6.798 2.083.323.009.648.023.97.038 1.683.075 3.272.147 3.93-.762.53-.732.419-2.061-.341-4.062l-.02-.052.044-.036c.006-.005.639-.525.488-.975-.107-.317-.642-.707-2.591-.772-1.928-.063-2.434.24-2.52.507-.124.387.573.958.852 1.145l.106.07-.852.476-.041-.032c-.024-.02-2.234-1.76-4.222-1.76Z"/><path fill="#000" d="M17.016 75.312c-.138 0-.284-.007-.438-.021l.015-.156c1.116.108 1.828-.25 1.835-.253l.071.14c-.026.013-.58.29-1.483.29ZM15.342 75.17c-.077 0-.34-.019-.776-.24l.07-.139c.469.237.713.223.716.223l.013.156h-.023ZM13.911 75.243c.163.077.307.174.445.277a4.703 4.703 0 0 1 .747.705c.111.132.216.27.303.427l-.01.012-.754-.7-.742-.71.011-.01Z"/><path fill="#000" d="M13.914 75.248c.065.138.104.277.133.418a3.238 3.238 0 0 1 .06.85c-.01.142-.028.286-.073.432h-.015l-.068-.848-.053-.85.016-.002Z"/><path fill="#fff" d="M9.481 74.174c-.149.078-.296.154-.43.251-.07.042-.134.093-.2.139-.065.05-.126.103-.189.153a2.494 2.494 0 0 0-.597.734 2.429 2.429 0 0 0-.307.894l-.024.119-.008.121-.017.245c-.01.164.007.33-.003.5l-.015.003c-.02-.166-.051-.331-.064-.498l-.003-.252-.001-.126.015-.125.03-.25.065-.243c.017-.084.055-.16.087-.237.032-.078.062-.157.109-.227.163-.295.391-.551.659-.754.268-.202.568-.362.889-.462l.004.015Z"/><path fill="#000" d="M53.415 68.31c-2.606.915-5.187 1.904-7.81 2.771-2.48.82-5.395 1.637-8.02 1.064-6.48-1.413-.996-9.175.965-12.315 1.157-1.853-1.77-3.553-2.921-1.708-2.785 4.458-7.855 12.5-1.428 16.31 6.047 3.586 14.287-.813 20.113-2.86 2.041-.717 1.163-3.987-.9-3.263Z"/><path fill="#FF558B" d="M49.978 69.087s-2.43-1.336-.93 2.704c1.608 4.33 2.31.906 2.31.906l.621.496s-1.779 6.084 2.526 6.359c4.304.275 2.926-4.955 1.756-8.03-1.17-3.074-1.79-6.63-6.283-2.435Z"/><path fill="#000" d="M54.82 79.64c-.104 0-.21-.003-.32-.01-1.02-.065-1.791-.459-2.29-1.171-.677-.966-.723-2.355-.643-3.35.075-.922.27-1.687.323-1.887l-.485-.387c-.083.326-.35 1.186-.85 1.224-.491.038-1.007-.695-1.58-2.241-.57-1.535-.646-2.499-.224-2.863.384-.331 1.028-.054 1.214.037 1.586-1.472 2.807-2.078 3.733-1.853 1.173.284 1.722 1.82 2.304 3.447.108.303.217.608.332.909.925 2.431 1.785 5.659.626 7.23-.449.608-1.168.916-2.14.916Zm-3.514-7.084.763.609-.015.05c-.01.034-.965 3.373.284 5.154.47.671 1.201 1.043 2.172 1.105 1.078.068 1.861-.214 2.324-.842.505-.684 1.092-2.514-.646-7.081a49.811 49.811 0 0 1-.333-.912c-.567-1.586-1.103-3.084-2.194-3.349-.878-.213-2.066.394-3.63 1.854l-.04.038-.05-.027c-.008-.004-.728-.392-1.088-.082-.252.219-.41.863.268 2.69.67 1.808 1.148 2.165 1.422 2.14.406-.031.67-.893.738-1.222l.025-.125Z"/><path fill="#000" d="M50.856 70.75c-.321-1.07-.923-1.599-.929-1.604l.102-.118c.026.022.641.56.977 1.676l-.15.045ZM51.435 72.703l-.156-.012c.042-.524-.064-.745-.065-.747l.14-.071c.005.01.127.254.081.83ZM51.972 73.19c.01-.18.045-.35.088-.516a4.713 4.713 0 0 1 .37-.96c.08-.152.167-.302.28-.442l.015.006-.362.962-.376.956-.015-.006Z"/><path fill="#000" d="M51.976 73.186c.103-.112.217-.2.336-.281.118-.082.243-.15.369-.215.128-.06.258-.119.395-.163.136-.045.276-.082.427-.096l.007.014-.76.385-.767.37-.007-.014Z"/><path fill="#fff" d="M52.66 77.695c.13.109.255.216.396.303.065.05.137.09.204.134.07.04.143.077.214.115.287.144.59.25.905.275.31.042.632.028.944-.054l.119-.023.115-.038.233-.077c.156-.053.302-.131.464-.187l.009.013c-.146.082-.288.173-.438.248l-.231.098-.116.049-.122.033-.243.066-.25.033c-.083.016-.167.01-.251.01-.084 0-.169 0-.252-.016a2.436 2.436 0 0 1-.947-.324 2.94 2.94 0 0 1-.765-.648l.013-.01Z"/><path fill="#000" d="M71.458 32.647c-.082-.42-.716-.208-.634.21.304 1.557.544 3.152.419 4.743-.118 1.485-.925 2.716-1.86 3.833-.907 1.084-1.812 2.121-2.4 3.426a7.686 7.686 0 0 0-.604 4.001c.18 1.495.714 2.926 1.101 4.373.408 1.53.505 3.013.253 4.578-.212 1.31-.75 2.52-1.796 3.374-1.028.84-2.285 1.185-3.588.882-1.517-.353-2.859-1.32-3.971-2.376a11.406 11.406 0 0 1-1.642-1.97c-.47-.71-.779-1.486-1.095-2.274-.159-.396-.794-.19-.634.21.287.716.562 1.438.962 2.1a11.88 11.88 0 0 0 1.388 1.843c.982 1.08 2.192 2.046 3.524 2.657 1.24.569 2.658.827 3.965.323a5.558 5.558 0 0 0 2.761-2.338c.752-1.26.946-2.839.954-4.282.008-1.636-.526-3.192-.966-4.748-.454-1.603-.781-3.148-.421-4.807.333-1.534 1.252-2.848 2.265-4.012 1.052-1.208 2.169-2.582 2.408-4.217.268-1.84-.036-3.721-.389-5.529Z"/><path fill="#FFD200" d="m70.649 29.413.051 1.777-.507.014-.052-1.776c0-.034.026-.063.06-.064l.384-.01a.062.062 0 0 1 .064.06Z"/><path fill="#000" d="m70.117 31.285-.054-1.854a.141.141 0 0 1 .136-.145l.383-.011a.145.145 0 0 1 .145.136l.054 1.855-.664.019Zm.103-1.843.049 1.682.35-.01-.048-1.682-.351.01Z"/><path fill="#FFD200" d="m71.924 29.376.051 1.776-.507.015-.052-1.776c0-.034.026-.063.06-.064l.384-.011a.062.062 0 0 1 .064.06Z"/><path fill="#000" d="m71.392 31.248-.054-1.854a.14.14 0 0 1 .136-.145l.383-.011a.141.141 0 0 1 .145.136l.054 1.855-.664.019Zm.103-1.843.049 1.682.35-.01-.048-1.682-.351.01Z"/><path fill="#000" d="m69.584 30.695.075 2.6 2.843-.082-.076-2.6-2.842.082Z"/><path fill="#000" d="m69.586 33.379-.08-2.757 2.999-.087.08 2.757-3 .087Zm.08-2.606.072 2.445 2.686-.078-.071-2.444-2.686.077Z"/><path fill="#FFD200" d="M66.77 45.502a1.366 1.366 0 0 1-1.295 1.435c-.033.002-.066.004-.1.002h-.003a1.409 1.409 0 0 1-.572-.142c-.1-.048-.193-.11-.277-.183a1.358 1.358 0 0 1-.181-1.896 1.365 1.365 0 0 1 2.43.785Z"/><path fill="#000" d="m65.404 47.018-.033-.001a1.48 1.48 0 0 1-.605-.15 1.36 1.36 0 0 1-.294-.194 1.44 1.44 0 0 1-.191-2.005 1.429 1.429 0 0 1 1.054-.54c.386-.02.755.113 1.04.371a1.447 1.447 0 0 1-.972 2.518Zm.004-2.735a1.282 1.282 0 0 0-1.005.483 1.284 1.284 0 0 0 .17 1.788c.08.07.168.127.261.173.17.083.352.128.54.134a1.29 1.29 0 0 0 1.319-1.355 1.29 1.29 0 0 0-1.285-1.223Z"/><path fill="#FFD200" d="M71.18 55.395a1.366 1.366 0 0 1-1.396 1.437h-.003a1.411 1.411 0 0 1-.572-.142 1.28 1.28 0 0 1-.277-.184 1.358 1.358 0 0 1-.181-1.896 1.365 1.365 0 0 1 2.43.785Z"/><path fill="#000" d="M69.813 56.91h-.033a1.473 1.473 0 0 1-.605-.15 1.35 1.35 0 0 1-.294-.194 1.44 1.44 0 0 1-.191-2.005 1.43 1.43 0 0 1 1.054-.54 1.43 1.43 0 0 1 1.04.371c.287.259.454.613.474.999.019.387-.113.757-.371 1.043a1.431 1.431 0 0 1-1.074.476Zm.005-2.735c-.022 0-.044 0-.066.002a1.276 1.276 0 0 0-.94.481 1.284 1.284 0 0 0 .17 1.788c.081.07.168.128.261.174.17.082.353.128.54.134a1.277 1.277 0 0 0 .987-.424c.232-.256.349-.586.332-.931a1.279 1.279 0 0 0-.422-.891 1.277 1.277 0 0 0-.862-.333Z"/><path fill="#FFD200" d="M64.076 60.773a1.366 1.366 0 0 1-1.396 1.438h-.003a1.41 1.41 0 0 1-.572-.142 1.28 1.28 0 0 1-.277-.184 1.358 1.358 0 0 1-.181-1.896 1.365 1.365 0 0 1 2.43.785Z"/><path fill="#000" d="m62.71 62.29-.034-.002a1.477 1.477 0 0 1-.605-.149 1.368 1.368 0 0 1-.294-.195 1.44 1.44 0 0 1-.191-2.004 1.43 1.43 0 0 1 1.054-.54c.387-.02.755.113 1.04.371.287.259.455.613.474.999.019.386-.113.757-.371 1.043a1.431 1.431 0 0 1-1.074.476Zm.004-2.736c-.022 0-.044 0-.066.002a1.275 1.275 0 0 0-.94.481 1.285 1.285 0 0 0 .431 1.961c.171.084.353.129.54.134.036.002.067 0 .097-.001.344-.017.66-.167.89-.422.232-.256.35-.587.332-.931a1.278 1.278 0 0 0-.422-.891 1.278 1.278 0 0 0-.862-.333Z"/><path fill="#006658" d="M61.944 68.035a238.387 238.387 0 0 1-34.088-7.52l3.213-1.186-8.771-1.544c1.35-.211 3.316-.336 4.452-.673a62.366 62.366 0 0 1-9.86-3.055 62.415 62.415 0 0 1-10.677-5.55 22.413 22.413 0 0 0 8.396-4.16c-2.447.246-4.899.492-7.35.742a75.2 75.2 0 0 0 8.238-4.928l.08-.054.469-.325c.12-.082.236-.165.355-.251a75.832 75.832 0 0 0 8.824-7.31l-5.952-.706a91.782 91.782 0 0 0 10.232-5.693c.181-.116.363-.232.544-.351l.016-.011a101.54 101.54 0 0 0 3.4-2.333c.072-.05.142-.104.213-.154.207-.15.407-.298.607-.445l.103-.075a90.6 90.6 0 0 0 2.562-1.967c-1.899-.276-3.795-.552-5.694-.825a65.108 65.108 0 0 0 8.889-3.55c2.03-.99 3.87-2.018 5.524-3.037l-4.087-.377a79.145 79.145 0 0 0 6.023-2.153c.77-.31 1.52-.628 2.25-.945v-.003a81.115 81.115 0 0 0 6.703-3.317c-.06.086-1.51 2.211-2.092 6.83-.254 2.008-.341 4.486-.082 7.472a2523.01 2523.01 0 0 0-2.082-4.208 56.2 56.2 0 0 0 1.642 7.64c.005.02.01.042.017.062.048.165.096.33.145.491v.003l.024.083c.088.296.18.582.27.872.96 3.017 2.047 5.293 3.13 7.492-1.2-1.451-2.368-2.556-3.567-4.01a82.039 82.039 0 0 0 5.294 17.974l-4.226-4.092a62.554 62.554 0 0 0 .93 4.968c.035.159.073.318.111.48.005.026.013.052.018.082.059.238.117.479.18.723 0 .007.004.01.004.017a61.24 61.24 0 0 0 1.682 5.639c.013.039.028.075.04.114.062.184.125.365.19.542.055.152.11.303.167.453.534 1.455 1.09 2.8 1.646 4.033a1875.376 1875.376 0 0 1-4.086-3.162 28.689 28.689 0 0 0 6.031 11.258Z"/><path fill="#000" d="m62.141 68.142-.208-.03a242.007 242.007 0 0 1-14.358-2.53 239.403 239.403 0 0 1-19.741-4.991l-.225-.068 3.162-1.167-8.95-1.576.465-.072c.458-.072.977-.133 1.528-.197.928-.108 1.883-.22 2.607-.394a62.572 62.572 0 0 1-20.25-8.545l-.15-.097.173-.044a22.35 22.35 0 0 0 8.155-3.98l-.113.012c-2.321.233-4.646.466-6.97.703l-.41.042.367-.19a75.487 75.487 0 0 0 8.23-4.922l.08-.054c.155-.108.31-.217.469-.325.119-.082.235-.164.353-.25a75.905 75.905 0 0 0 8.697-7.19l-6.057-.717.244-.116a92.015 92.015 0 0 0 8.32-4.494 76.006 76.006 0 0 0 1.903-1.194 47.66 47.66 0 0 0 .565-.365c.27-.178.545-.359.813-.54.895-.6 1.762-1.201 2.58-1.788l.106-.077.107-.078.605-.444.105-.076a91.06 91.06 0 0 0 2.417-1.852l-.75-.109a2703.55 2703.55 0 0 0-4.764-.69l-.34-.048.327-.103a64.648 64.648 0 0 0 14.195-6.456l-4.242-.392.373-.116a79.417 79.417 0 0 0 6.017-2.151 85.822 85.822 0 0 0 2.2-.924l.047-.023A81.34 81.34 0 0 0 56.52 6.21l.289-.16-.187.273c-.153.224-1.515 2.32-2.079 6.796-.287 2.267-.314 4.775-.08 7.455l.035.414-.184-.373a2301.4 2301.4 0 0 0-1.862-3.764c.37 2.421.896 4.82 1.567 7.14.006.025.009.042.014.056l.147.497.024.084c.079.264.16.519.24.775l.031.097c.942 2.961 2.015 5.229 3.124 7.481l.295.599-.425-.515a46.626 46.626 0 0 0-1.77-1.99 51.084 51.084 0 0 1-1.609-1.794 82.61 82.61 0 0 0 1.654 7.347 82.186 82.186 0 0 0 3.585 10.32l.15.355-4.337-4.199a60.71 60.71 0 0 0 .896 4.734c.028.13.058.26.089.39l.021.09a.605.605 0 0 0 .008.036c.004.016.008.034.01.052l.038.149.14.567.002.004a64.291 64.291 0 0 0 .497 1.887 61.195 61.195 0 0 0 1.206 3.814 22.01 22.01 0 0 0 .21.599c.055.151.108.302.166.453a60.745 60.745 0 0 0 1.644 4.028l.129.285-.248-.191c-1.3-1.004-2.602-2.01-3.9-3.018a28.39 28.39 0 0 0 2.23 5.576 28.645 28.645 0 0 0 3.722 5.425l.14.159Zm-34.038-7.634a239.315 239.315 0 0 0 19.503 4.922c4.676.97 9.432 1.81 14.142 2.497a28.81 28.81 0 0 1-3.605-5.295 28.522 28.522 0 0 1-2.306-5.835l-.061-.225.184.143c1.278.992 2.56 1.983 3.84 2.972a61.002 61.002 0 0 1-1.687-4.207 22.196 22.196 0 0 1-.21-.6 61.277 61.277 0 0 1-1.704-5.704c-.002-.003-.005-.01-.006-.02-.049-.19-.095-.378-.14-.564l-.04-.155c-.003-.021-.006-.034-.009-.047a.644.644 0 0 1-.009-.041l-.02-.084c-.03-.132-.062-.262-.09-.392a62.945 62.945 0 0 1-.931-4.973l-.033-.227 4.115 3.984a82.395 82.395 0 0 1-3.443-9.988 82.652 82.652 0 0 1-1.707-7.65l-.05-.291.187.228c.602.73 1.206 1.382 1.79 2.013.448.484.907.98 1.368 1.514-1.013-2.076-1.989-4.213-2.855-6.935l-.03-.098a47.95 47.95 0 0 1-.241-.776l-.027-.095a100.53 100.53 0 0 1-.159-.544 56.514 56.514 0 0 1-1.644-7.651l-.07-.483.217.437c.635 1.28 1.27 2.56 1.901 3.84-.197-2.537-.158-4.917.115-7.079.477-3.789 1.528-5.895 1.945-6.607a81.589 81.589 0 0 1-6.398 3.154l-.05.025c-.855.372-1.571.672-2.25.945a79.623 79.623 0 0 1-5.66 2.038l3.935.364-.2.122a64.746 64.746 0 0 1-14.106 6.492c1.477.212 2.952.427 4.428.641l1.109.161-.142.113a90.735 90.735 0 0 1-2.564 1.968l-.105.076-.605.445-.107.077a102.121 102.121 0 0 1-2.69 1.87c-.269.18-.544.361-.82.542l-.02.014a41.44 41.44 0 0 1-.54.349 92.14 92.14 0 0 1-9.997 5.581l5.847.693-.118.114a76.09 76.09 0 0 1-9.189 7.57c-.159.109-.314.217-.468.325l-.081.054a75.61 75.61 0 0 1-7.883 4.744c2.188-.222 4.376-.442 6.561-.661l.647-.065-.209.165a22.499 22.499 0 0 1-8.253 4.13 62.474 62.474 0 0 0 20.362 8.497l.295.065-.29.086c-.758.226-1.867.355-2.94.48-.362.043-.712.084-1.038.127l8.574 1.51-3.265 1.205Z"/><path fill="#000" d="M44.77 20.79a.423.423 0 0 1-.207-.05c-.43-.235-.303-1.061-.19-1.526-.33.32-.96.816-1.445.485a.395.395 0 0 1-.17-.29c-.083-.665 1.095-2 1.145-2.057l.117.104c-.329.37-1.169 1.44-1.108 1.933.01.08.044.14.104.18.557.382 1.447-.678 1.456-.69l.258-.31-.124.385c-.124.386-.36 1.435.032 1.65.396.218 1.502-.726 1.895-1.108l.109.112c-.137.132-1.235 1.181-1.873 1.181ZM48.838 31.296a.384.384 0 0 1-.135-.023c-.46-.169-.458-1.005-.416-1.48-.277.365-.826.949-1.356.694a.392.392 0 0 1-.212-.261c-.18-.644.784-2.142.825-2.205l.131.085c-.27.416-.94 1.599-.805 2.078a.241.241 0 0 0 .13.162c.608.293 1.328-.887 1.336-.9l.208-.345-.065.398c-.064.4-.141 1.474.278 1.628.427.156 1.377-.944 1.708-1.38l.125.094c-.12.159-1.123 1.455-1.752 1.455ZM47.65 51.522h-.003c-.491-.006-.767-.795-.887-1.258-.139.438-.46 1.171-1.046 1.107a.393.393 0 0 1-.287-.176c-.385-.547.025-2.28.043-2.353l.152.036c-.116.482-.353 1.821-.067 2.228a.24.24 0 0 0 .176.11c.667.076.957-1.28.96-1.294l.081-.396.072.398c.073.4.358 1.436.805 1.442h.002c.452 0 .982-1.35 1.148-1.87l.15.047c-.066.203-.651 1.979-1.298 1.979ZM22.989 42.086c-.051 0-.1-.009-.145-.026-.457-.18-.436-1.015-.384-1.49-.285.36-.846.932-1.37.665a.394.394 0 0 1-.206-.266c-.167-.648.83-2.123.872-2.186l.13.088c-.28.41-.975 1.578-.851 2.06a.24.24 0 0 0 .126.165c.602.306 1.348-.859 1.355-.87l.217-.342-.074.397c-.073.4-.173 1.47.243 1.633.42.166 1.397-.913 1.737-1.342l.123.097c-.123.155-1.143 1.417-1.773 1.417ZM32.585 58.117a.396.396 0 0 1-.144-.026c-.457-.18-.436-1.015-.384-1.49-.285.36-.846.933-1.37.666A.393.393 0 0 1 30.48 57c-.166-.648.83-2.124.873-2.186l.129.087c-.279.41-.974 1.578-.85 2.06a.24.24 0 0 0 .125.166c.603.305 1.349-.86 1.356-.871l.216-.341-.073.397c-.074.399-.174 1.47.242 1.633.42.165 1.397-.914 1.738-1.343l.122.097c-.122.155-1.143 1.417-1.773 1.417ZM51.457 62.562h-.005c-.492-.008-.764-.798-.881-1.262-.141.437-.47 1.168-1.052 1.102a.394.394 0 0 1-.286-.177c-.382-.55.037-2.28.054-2.353l.152.037c-.118.48-.362 1.819-.078 2.227a.24.24 0 0 0 .176.11c.672.077.964-1.275.967-1.288l.083-.395.07.397c.07.4.35 1.438.797 1.446h.004c.452 0 .987-1.345 1.156-1.865l.148.049c-.066.202-.659 1.972-1.305 1.972Z"/><path fill="#FFD200" d="M58.977 5.303 60.549.71l-3.902 2.834-3.962-3.13 2.02 4.602-4.732 2.786 4.245-.278c-1.37.7-2.824 1.395-4.364 2.071v.003a7.608 7.608 0 0 0 4.612 3.51c.268-2.13.721-3.725 1.138-4.84l.558 4.396 1.705-4.95 4.831.567-3.721-2.978Z"/><path fill="#000" d="m54.532 13.207-.087-.023a7.655 7.655 0 0 1-2.9-1.486 7.657 7.657 0 0 1-1.758-2.06l-.01-.017-.003-.073.048-.025a81.822 81.822 0 0 0 4.021-1.897l-4.193.275 4.956-2.917L52.487.158l4.162 3.288L60.703.502l-1.635 4.774L62.96 8.39 57.92 7.8l-1.794 5.208-.56-4.407c-.47 1.337-.814 2.855-1.023 4.518l-.011.09Zm-4.567-3.575a7.5 7.5 0 0 0 1.678 1.945A7.496 7.496 0 0 0 54.4 13.01c.228-1.767.608-3.37 1.13-4.767l.111-.297.556 4.377 1.617-4.693 4.622.543-3.551-2.842 1.51-4.411-3.75 2.723L52.882.67l1.924 4.378-4.51 2.655 4.295-.282-.337.172a82.43 82.43 0 0 1-4.29 2.039ZM54.13 24.651c-.784.237-1.58.437-2.38.594-.444.096-.888.175-1.336.24-.12.02-.239.036-.358.052-3.091.422-6.277.22-9.333-.393-1.452-.291-2.921-.596-4.334-1.04a16.93 16.93 0 0 1-2.71-1.131l.605-.445c.93.455 1.89.835 2.898 1.115a48.69 48.69 0 0 0 2.694.665c.436.091.868.177 1.306.252h.003c1.626.293 3.267.478 4.914.52 2.667.067 5.299-.316 7.845-1.068.005.02.01.043.017.063.048.164.096.33.145.49v.004l.024.082Z"/><path fill="#FFD200" d="M42.12 23.195a1.368 1.368 0 1 1-2.732.136 1.368 1.368 0 0 1 2.732-.136Z"/><path fill="#000" d="M40.752 24.709c-.359 0-.7-.132-.968-.374a1.437 1.437 0 0 1-.474-1c-.019-.386.113-.756.372-1.042.26-.287.614-.455 1-.474a1.45 1.45 0 0 1 1.516 1.371 1.447 1.447 0 0 1-1.446 1.519Zm.003-2.736a1.287 1.287 0 0 0-1.289 1.354c.017.344.167.66.423.892a1.291 1.291 0 0 0 2.153-1.02 1.291 1.291 0 0 0-1.287-1.226Z"/><path fill="#FFD200" d="M52.655 26.465a1.368 1.368 0 1 1-2.732.137 1.368 1.368 0 0 1 2.732-.137Z"/><path fill="#000" d="M51.288 27.98a1.448 1.448 0 0 1-1.443-1.375 1.448 1.448 0 0 1 1.372-1.516 1.448 1.448 0 0 1 1.516 1.372 1.447 1.447 0 0 1-1.444 1.518Zm.002-2.736a1.29 1.29 0 0 0-1.289 1.354c.036.71.647 1.26 1.352 1.224a1.291 1.291 0 0 0 1.224-1.353 1.291 1.291 0 0 0-1.287-1.225ZM58.186 55.453c-3.016.107-6.04.124-9.054-.036-2.91-.155-5.804-.499-8.65-1.112a43.015 43.015 0 0 1-1.366-.316c-3.141-.783-6.164-1.932-9.097-3.296a53.21 53.21 0 0 1-9.155-5.47c-.281-.21-.556-.423-.83-.64-.004 0-.004 0-.004-.003a31.16 31.16 0 0 1-2.234-1.957c-.805-.786-1.555-1.62-2.3-2.463l.082-.054c.155-.108.31-.216.468-.324.832.934 1.674 1.865 2.59 2.715a35.176 35.176 0 0 0 4.297 3.382 57.31 57.31 0 0 0 5.636 3.346l.003.003c.203.11.409.213.614.317 3.621 1.82 7.446 3.238 11.407 4.103 3.437.747 6.938 1.09 10.452 1.192h.004c.59.02 1.175.031 1.763.036.004.003.004 0 .004 0 1.715.014 3.428-.018 5.14-.08.012.04.027.075.04.115.062.184.125.364.19.542Z"/><path fill="#FFD200" d="M30.854 48.14a1.368 1.368 0 1 1-2.732.137 1.368 1.368 0 0 1 2.732-.136Z"/><path fill="#000" d="M29.487 49.655a1.448 1.448 0 0 1-1.071-2.416c.259-.286.614-.455 1-.474a1.45 1.45 0 0 1 1.516 1.372 1.447 1.447 0 0 1-1.445 1.518Zm.002-2.736a1.285 1.285 0 0 0-.957.425 1.292 1.292 0 0 0 1.02 2.153 1.291 1.291 0 0 0 1.224-1.352 1.291 1.291 0 0 0-1.287-1.226Z"/><path fill="#FFD200" d="M40.903 55.223a1.368 1.368 0 1 1-2.733.136 1.368 1.368 0 0 1 2.733-.136Z"/><path fill="#000" d="M39.536 56.737a1.447 1.447 0 0 1-1.443-1.373 1.447 1.447 0 1 1 1.443 1.373Zm.001-2.735-.065.001c-.71.036-1.26.642-1.224 1.352.036.71.643 1.258 1.353 1.224a1.291 1.291 0 0 0 1.223-1.352 1.291 1.291 0 0 0-1.287-1.225Z"/><path fill="#FFD200" d="M53.318 53.747a1.368 1.368 0 1 1-2.733.137 1.368 1.368 0 0 1 2.733-.137Z"/><path fill="#000" d="M51.95 55.261c-.359 0-.7-.131-.968-.373a1.447 1.447 0 0 1 .898-2.516 1.45 1.45 0 0 1 1.516 1.371 1.447 1.447 0 0 1-1.446 1.518Zm.002-2.735a1.29 1.29 0 1 0-.005 2.58 1.29 1.29 0 0 0 .005-2.58Z"/><path fill="#FFD200" d="M21.044 45.837a1.368 1.368 0 1 1-2.732.136 1.368 1.368 0 0 1 2.732-.136Z"/><path fill="#000" d="M19.677 47.35a1.447 1.447 0 0 1-1.443-1.373 1.447 1.447 0 1 1 1.443 1.373Zm.002-2.735a1.287 1.287 0 0 0-1.29 1.354 1.29 1.29 0 0 0 2.577-.128 1.291 1.291 0 0 0-1.287-1.226ZM56.09 48.417c.058.238.117.48.18.723-1.455-.535-2.848-1.194-4.208-1.929a55.222 55.222 0 0 1-3.983-2.364 42.916 42.916 0 0 1-1.712-1.158 52.103 52.103 0 0 1-7.55-6.436c-3.419-3.536-6.39-7.48-9.312-11.431.181-.116.363-.232.544-.352.007-.003.01-.007.016-.01 1.449 1.956 2.906 3.906 4.435 5.802 1.736 2.146 3.51 4.267 5.472 6.211a54.417 54.417 0 0 0 6.132 5.24c2.235 1.643 4.643 3.08 7.107 4.35.85.436 1.719.824 2.602 1.171.085.036.174.068.26.1.197.078.391.152.589.225a1.41 1.41 0 0 1-.572-.142Z"/><path fill="#FFD200" d="M48.087 44.942a1.368 1.368 0 1 1-2.732.136 1.368 1.368 0 0 1 2.732-.136Z"/><path fill="#000" d="M46.72 46.456c-.36 0-.7-.132-.969-.374a1.447 1.447 0 0 1 1.94-2.144 1.447 1.447 0 0 1-.972 2.518Zm.003-2.736c-.022 0-.044 0-.066.002a1.291 1.291 0 0 0-.801 2.244 1.288 1.288 0 0 0 2.153-1.02 1.281 1.281 0 0 0-.422-.892 1.28 1.28 0 0 0-.864-.334Z"/><path fill="#FFD200" d="M58.06 47.122a1.366 1.366 0 0 1-1.295 1.435c-.033.002-.066.004-.1.002h-.003a1.409 1.409 0 0 1-.572-.142c-.1-.048-.193-.11-.277-.183a1.358 1.358 0 0 1-.181-1.896 1.365 1.365 0 0 1 2.43.785Z"/><path fill="#000" d="m56.694 48.638-.033-.001a1.477 1.477 0 0 1-.606-.15 1.363 1.363 0 0 1-.293-.194 1.44 1.44 0 0 1-.191-2.005 1.443 1.443 0 0 1 2.568.83c.02.387-.113.758-.371 1.044a1.432 1.432 0 0 1-1.074.476Zm.003-2.735a1.28 1.28 0 0 0-1.004.483 1.284 1.284 0 0 0 .17 1.788c.08.07.168.128.261.173.17.083.352.128.54.134a1.278 1.278 0 0 0 .988-.424 1.29 1.29 0 0 0-.954-2.154ZM37.09 44.715l-.026.004c-2.738.248-5.435-.94-7.308-2.914a10.01 10.01 0 0 1-1.776-2.573c-.717-1.515-.956-3.218-.029-4.669.863-1.341 2.136-1.087 3.341-.355 1.063.647 2.075 1.669 2.698 2.297.542.542 1.116 1.04 1.797 1.396 1.097.58 2.358.67 3.469 1.19.22.103.46.233.698.397.692.462 1.383 1.134 1.575 1.851.564 2.147-2.9 3.234-4.44 3.376Z"/><path fill="#000" d="M36.354 44.828c-2.424 0-4.863-1.08-6.655-2.97-.73-.769-1.366-1.69-1.79-2.593-.593-1.253-1.079-3.094-.024-4.744.76-1.18 1.92-1.308 3.447-.38 1.077.655 2.101 1.69 2.713 2.31.444.443 1.048 1 1.778 1.381.576.305 1.211.476 1.826.642.547.148 1.113.3 1.64.547.253.118.491.253.709.403.401.268 1.364.99 1.606 1.895a1.768 1.768 0 0 1-.28 1.522c-.85 1.214-3.038 1.84-4.222 1.951l-.018.003a8.046 8.046 0 0 1-.73.033Zm.703-.187.026.075-.01-.077.01-.002c1.24-.114 3.336-.775 4.113-1.885.3-.43.387-.899.257-1.393-.228-.852-1.155-1.547-1.543-1.806a4.788 4.788 0 0 0-.688-.39c-.514-.241-1.073-.392-1.614-.538-.622-.168-1.266-.342-1.857-.654-.749-.391-1.364-.96-1.817-1.41-.607-.614-1.623-1.641-2.683-2.286-1.461-.888-2.52-.78-3.234.33-1.017 1.59-.543 3.376.034 4.594a9.974 9.974 0 0 0 1.762 2.552c1.94 2.046 4.646 3.125 7.244 2.89Z"/><path fill="#FF2A2A" d="m37.09 44.715-.026.004c-2.738.248-5.435-.94-7.308-2.914a10.013 10.013 0 0 1-1.776-2.573c1.679-.722 3.89-.56 5.83.607 1.95 1.17 3.133 3.047 3.28 4.876Z"/><path fill="#000" d="M36.354 44.828c-2.424 0-4.863-1.08-6.655-2.97a10.14 10.14 0 0 1-1.79-2.593l-.034-.073.074-.032c1.757-.756 4.019-.521 5.901.611 1.894 1.136 3.165 3.028 3.317 4.938l.006.067-.09.019a8.121 8.121 0 0 1-.73.033Zm-8.268-5.556a10.01 10.01 0 0 0 1.727 2.479c1.926 2.032 4.61 3.111 7.192 2.894-.176-1.834-1.41-3.645-3.235-4.74-1.814-1.091-3.983-1.33-5.684-.633ZM37.563 27.152l-.454.841 3.763 2.03.453-.842-3.762-2.029Z"/><path fill="#000" d="m40.901 30.129-3.9-2.104.528-.978 3.9 2.103-.528.979Zm-3.688-2.167 3.624 1.955.38-.703-3.625-1.955-.38.703Z"/><path fill="#000" d="M55.301 36.72c-2.65 4.914-7.813 7.296-11.653 5.43a6.31 6.31 0 0 1-.945-.568l-.002-.002a6.556 6.556 0 0 1-1.708-1.869c-1.677-2.732-1.663-6.833.33-10.529l13.978 7.538Z"/><path fill="#000" d="M46.494 42.87a6.54 6.54 0 0 1-3.116-.772 6.461 6.461 0 0 1-.72-.454 6.632 6.632 0 0 1-1.73-1.892c-1.745-2.84-1.616-7.004.327-10.607l.037-.069 14.115 7.612-.037.07c-2.056 3.813-5.58 6.113-8.876 6.113Zm-5.139-13.582c-1.881 3.539-2 7.606-.295 10.382a6.48 6.48 0 0 0 1.688 1.847c.229.166.465.315.704.444.073.039.147.076.221.113 1.848.898 4.052.837 6.215-.167 2.153-1 4.036-2.83 5.307-5.155l-13.84-7.464Z"/><path fill="#fff" d="M49.988 33.854c-2.468 2.574-5.037 5.025-7.612 7.47a6.558 6.558 0 0 1-1.383-1.613c2.342-2.318 4.768-4.536 7.077-6.891l1.918 1.034Z"/><path fill="#000" d="m42.38 41.428-.054-.044a6.634 6.634 0 0 1-1.4-1.632l-.032-.053.044-.044c.986-.975 2.003-1.949 2.986-2.89 1.354-1.296 2.753-2.636 4.09-4l.041-.041 2.06 1.11-.07.074c-2.425 2.527-4.883 4.88-7.615 7.472l-.05.048Zm-1.287-1.705c.355.57.785 1.072 1.28 1.496 2.684-2.547 5.104-4.864 7.487-7.345l-1.775-.957c-1.326 1.35-2.712 2.677-4.052 3.96-.969.927-1.97 1.886-2.94 2.846Z"/><path fill="#fff" d="M51.25 34.535c-2.49 2.59-5.083 5.054-7.602 7.613a6.312 6.312 0 0 1-.945-.568c2.034-1.93 4.068-3.868 6.048-5.867.541-.549 1.079-1.1 1.61-1.657l.889.479Z"/><path fill="#000" d="m43.664 42.244-.05-.025a6.461 6.461 0 0 1-.956-.575l-.077-.055.069-.065c2.173-2.064 4.129-3.93 6.046-5.865.59-.6 1.117-1.142 1.61-1.657l.04-.043 1.032.556-.071.075c-1.436 1.494-2.93 2.97-4.375 4.397-1.063 1.049-2.16 2.133-3.227 3.217l-.04.04Zm-.838-.672c.203.143.414.274.626.388l.18.093a324.248 324.248 0 0 1 3.19-3.178 240.088 240.088 0 0 0 4.3-4.32l-.745-.402c-.48.503-.995 1.032-1.57 1.615-1.899 1.917-3.834 3.765-5.981 5.804ZM37.56 27.152c-2.704 5.015-8.024 7.392-11.886 5.31a6.159 6.159 0 0 1-.347-.204 6.011 6.011 0 0 1-1.16-.936 6.86 6.86 0 0 1-1.237-1.757c-1.344-2.71-1.205-6.505.653-9.95l13.978 7.538Z"/><path fill="#000" d="M28.717 33.291a6.434 6.434 0 0 1-3.08-.76 6.356 6.356 0 0 1-.352-.206 6.134 6.134 0 0 1-1.175-.949 6.94 6.94 0 0 1-1.25-1.776c-1.403-2.831-1.153-6.672.654-10.023l.037-.068 14.116 7.612-.037.069c-2.052 3.803-5.616 6.101-8.913 6.101Zm-5.102-13.57c-1.75 3.29-1.987 7.042-.614 9.81a6.78 6.78 0 0 0 1.517 2.02c.26.237.547.452.85.641.128.08.237.144.343.201 3.8 2.049 9.053-.288 11.743-5.209l-13.84-7.464Z"/><path fill="#fff" d="M31.66 23.97c-2.43 2.533-4.957 4.948-7.494 7.352a6.86 6.86 0 0 1-1.236-1.757c2.26-2.223 4.59-4.363 6.812-6.629l1.918 1.034Z"/><path fill="#000" d="m24.165 31.431-.054-.055a6.94 6.94 0 0 1-1.25-1.776l-.026-.05.04-.04a284.4 284.4 0 0 1 2.7-2.609c1.36-1.302 2.767-2.65 4.111-4.02l.042-.042 2.06 1.111-.072.074c-2.453 2.558-5.048 5.036-7.496 7.355l-.055.052Zm-1.14-1.85a6.796 6.796 0 0 0 1.144 1.631c2.406-2.28 4.951-4.712 7.363-7.222l-1.775-.957c-1.334 1.357-2.727 2.691-4.074 3.981-.874.838-1.778 1.703-2.657 2.567Z"/><path fill="#fff" d="M32.922 24.65c-2.488 2.59-5.078 5.051-7.595 7.608a6.026 6.026 0 0 1-.86-.649c2.003-1.901 4.004-3.811 5.956-5.78a143 143 0 0 0 1.61-1.658l.89.48Z"/><path fill="#000" d="m25.338 32.357-.053-.033a6.155 6.155 0 0 1-.871-.656l-.063-.057.062-.058c1.922-1.824 3.966-3.773 5.954-5.779.586-.594 1.113-1.136 1.61-1.656l.041-.043 1.032.556-.071.074c-1.438 1.496-2.933 2.973-4.38 4.402a325.582 325.582 0 0 0-3.216 3.206l-.045.044Zm-.757-.75c.228.201.474.386.734.551 1.05-1.065 2.13-2.131 3.174-3.163a242.25 242.25 0 0 0 4.306-4.325l-.746-.402c-.485.508-1 1.038-1.57 1.616-1.97 1.986-3.992 3.915-5.898 5.724Z"/><path fill="#FFD200" d="M35.558 32.972c-.553.74-.352 1.826.449 2.424.8.598 1.898.482 2.451-.258.553-.74.352-1.826-.449-2.424-.8-.598-1.898-.482-2.451.258Z"/><path fill="#000" d="M37.138 35.856c-.404 0-.82-.13-1.178-.398-.403-.3-.674-.729-.762-1.206-.089-.48.017-.95.297-1.326.281-.376.703-.611 1.188-.662.48-.051.97.087 1.373.388.834.622 1.043 1.759.465 2.533-.33.441-.846.67-1.383.67Zm-.259-3.446c-.06 0-.12.003-.18.01-.441.046-.824.259-1.078.6-.254.34-.35.767-.27 1.203.082.439.331.833.703 1.11.765.572 1.816.463 2.342-.242.526-.705.332-1.743-.433-2.314-.322-.24-.7-.367-1.084-.367Z"/><path fill="#fff" d="M37.241 32.965c.392.612-.559 1.222-.951.609-.392-.612.559-1.222.951-.609Z"/><path fill="#009CF7" d="m34.594 0-1.582.45 2.304 8.123 1.581-.448L34.595.001ZM15.264 12.143l-.956 1.336 6.32 4.523.957-1.337-6.321-4.522ZM24.061 3.952l-1.423.823 4.54 7.848 1.423-.823-4.54-7.848Z"/></g><defs><clipPath id="a"><path fill="#fff" d="M0 0h80v80H0z"/></clipPath></defs></svg>