<svg xmlns="http://www.w3.org/2000/svg" width="81" height="80" fill="none"><g clip-path="url(#a)"><path fill="#F4F1E3" d="M66.975 78.713H13.066s5.72-9.868 14.344-8.632c8.624 1.235 7.762 4.964 14.52 3.747 4.827-.869 3.672-2.434 9.345-4.455 7.974-2.842 15.7 9.34 15.7 9.34Z"/><path fill="#241726" d="M73.453 18.951a.164.164 0 0 1-.097-.297c.108-.087.798-.802 1.121-1.182a29.11 29.11 0 0 0-1.723.323.164.164 0 1 1-.069-.321c2.19-.468 2.217-.38 2.266-.221.084.27-1.385 1.655-1.401 1.666a.162.162 0 0 1-.097.032Z"/><path fill="#B1739A" d="M70.92 18.993s.16-2.56 1.495-2.094c1.85.645 2.7 5.413-.792 6.448-3.492 1.035-4.75-1.837-4.75-1.837l1.875-.43s-1.343-1.214-1.215-2.208c.127-.993 1.176-.118 1.176-.118s-1.226-2.291-.207-2.359c1.018-.067 2.418 2.598 2.418 2.598Z"/><path fill="#241726" d="M72.496 18.694c-.357 0-.704-.523-.804-.686a.164.164 0 1 1 .28-.172c.138.225.353.469.479.52.001-.137-.092-.474-.22-.774a.164.164 0 0 1 .303-.128c.134.315.337.88.192 1.115a.256.256 0 0 1-.206.124h-.024ZM69.341 21.071a.164.164 0 0 1-.104-.038c-.1-.083-.977-.83-.914-1.444.021-.203.139-.279.207-.306.201-.079.49.06.735.224-.112-.63-.054-.985.175-1.059.097-.032.394-.127 1.48 1.565a.164.164 0 0 1-.276.178c-.394-.614-.913-1.296-1.109-1.412-.026.121.027.616.145 1.091a.164.164 0 0 1-.267.164c-.294-.255-.657-.472-.758-.446.001.003-.002.014-.005.035-.034.332.47.886.797 1.158a.164.164 0 0 1-.106.29ZM70.877 22.755c-.501 0-.87-.098-.9-.106a.164.164 0 0 1 .087-.317c.013.004 1.289.34 2.268-.297.59-.384.96-1.045 1.101-1.967a.164.164 0 1 1 .325.05c-.156 1.019-.576 1.757-1.249 2.193-.542.352-1.148.444-1.632.444ZM2.166 40.458a.16.16 0 0 1-.095-.03c-.015-.012-1.484-1.4-1.4-1.668.05-.163.076-.245 2.265.221a.164.164 0 1 1-.069.322c-.64-.137-1.342-.27-1.723-.323.323.38 1.014 1.095 1.124 1.184.069.056.083.158.029.23a.164.164 0 0 1-.13.064Z"/><path fill="#B1739A" d="M4.7 40.5s-.158-2.559-1.493-2.093c-1.85.644-2.7 5.413.791 6.448 3.492 1.035 4.75-1.837 4.75-1.837l-1.875-.43s1.343-1.214 1.216-2.208c-.127-.994-1.176-.118-1.176-.118s1.225-2.292.206-2.359c-1.018-.067-2.418 2.598-2.418 2.598Z"/><path fill="#241726" d="M3.125 40.202h-.024a.256.256 0 0 1-.206-.125c-.144-.235.059-.8.192-1.115a.164.164 0 1 1 .302.128c-.127.3-.22.637-.219.774.126-.051.342-.295.479-.52a.164.164 0 1 1 .28.172c-.1.163-.447.686-.804.686ZM6.28 42.579a.164.164 0 0 1-.105-.29c.326-.272.83-.827.796-1.159a.105.105 0 0 0-.01-.04c-.085-.025-.454.193-.752.452a.164.164 0 0 1-.267-.164c.111-.45.165-.917.128-1.081-.207.14-.708.804-1.092 1.402a.165.165 0 0 1-.277-.178c1.087-1.693 1.383-1.597 1.48-1.565.23.074.288.43.175 1.058.245-.163.535-.302.735-.223.068.027.186.103.207.305.063.614-.813 1.362-.913 1.445a.164.164 0 0 1-.105.038ZM4.744 44.263c-.484 0-1.09-.092-1.632-.444-.673-.436-1.093-1.174-1.249-2.193a.164.164 0 1 1 .325-.05c.141.922.511 1.583 1.101 1.967.979.636 2.256.3 2.268.297a.164.164 0 0 1 .087.317c-.03.008-.399.106-.9.106Z"/><path fill="#51AEA5" d="M10.175 17.753s1.01-2.996 1.443-2.687c.434.31.325.83.325.83s1.26-1.628 1.943-1.23c.683.398.016 1.206.016 1.206s2.115-1.5 2.449-.714c.333.786-1.574 2.392-1.574 2.392s1.1-.681 1.33.241c.228.923-1.62 1.145-1.735 1.145-.115 0 .604-.033.388.579-.215.61-6.028.925-4.585-1.762ZM7.507 21.05s-2.831 1.408-2.92.883c-.088-.525.356-.817.356-.817s-2.042.263-2.244-.501c-.203-.764.84-.865.84-.865s-2.557-.431-2.238-1.223c.319-.793 2.803-.583 2.803-.583s-1.26-.295-.77-1.11c.49-.814 1.955.332 2.036.414.08.081-.45-.403.133-.684.585-.28 4.923 3.602 2.004 4.485Z"/><path fill="#51AEA5" d="M10.894 20.576s2.637 1.745 2.227 2.085c-.41.34-.885.1-.885.1s1.25 1.637.69 2.195c-.56.557-1.17-.295-1.17-.295s.907 2.43.062 2.55c-.846.12-1.908-2.135-1.908-2.135s.376 1.239-.575 1.223c-.95-.017-.691-1.86-.661-1.97.03-.11-.124.592-.66.226-.534-.365.654-6.064 2.88-3.98Z"/><path fill="#D45A41" d="M11.608 18.708a1.883 1.883 0 0 0-.894.03 1.894 1.894 0 1 0-3.283 1.03 1.893 1.893 0 0 0 .07 3.69 1.895 1.895 0 0 0 2.273-1.673 1.895 1.895 0 1 0 1.834-3.077Zm-2.266 1.616-.008.058-.04-.046.048-.012Z"/><path fill="#241726" d="M6.909 19.819a.163.163 0 0 1-.093-.029c-1.138-.777-3.272-.681-3.293-.682-.093.01-.168-.065-.172-.155a.164.164 0 0 1 .156-.172c.092-.005 2.265-.102 3.495.738a.164.164 0 0 1-.093.3ZM11.608 18.872a.164.164 0 0 1-.032-.326c.7-.136 1.91-1.666 2.317-2.244a.165.165 0 0 1 .269.19c-.158.223-1.568 2.191-2.523 2.377a.157.157 0 0 1-.031.003ZM10.67 25.285a.164.164 0 0 1-.165-.161c-.009-.572-.147-2.123-.665-2.43a.164.164 0 0 1 .167-.282c.768.454.823 2.477.827 2.706a.164.164 0 0 1-.162.167h-.002ZM10.748 18.733a.164.164 0 0 0-.211.097c-.004.01-.39 1.025-1.203 1.184a.16.16 0 0 0-.072.037c-.042-.029-.082-.058-.128-.084-.64-.363-1.184-.483-1.614-.356-.372.11-.514.363-.53.392a.163.163 0 0 0 .068.22.165.165 0 0 0 .222-.066.572.572 0 0 1 .344-.235c.234-.064.658-.06 1.349.33.873.495.622 1.655.61 1.704a.165.165 0 0 0 .32.073c.012-.05.23-1.05-.363-1.73.894-.27 1.288-1.31 1.305-1.356a.164.164 0 0 0-.097-.21Z"/><path fill="#FBFCFF" d="M10.072 18.256a.164.164 0 0 1-.156-.113c-.218-.666-.986-.61-.993-.61a.164.164 0 1 1-.027-.327c.357-.033 1.094.107 1.332.835a.164.164 0 0 1-.156.215ZM12.552 20.682a.164.164 0 0 1-.158-.12c-.137-.493-.854-.794-.861-.797a.164.164 0 0 1 .125-.304c.035.015.873.365 1.052 1.013a.164.164 0 0 1-.158.208ZM9.092 21.644a.164.164 0 0 1-.164-.162.365.365 0 0 0-.12-.274c-.25-.238-.832-.27-1.037-.26a.167.167 0 0 1-.17-.156.165.165 0 0 1 .156-.172c.036 0 .872-.033 1.277.35.145.137.22.308.223.508a.164.164 0 0 1-.163.166h-.002Z"/><path fill="#51AEA5" d="M71.068 56.225s-2.755-1.552-2.37-1.92c.385-.368.876-.163.876-.163s-1.364-1.543-.846-2.14c.519-.596 1.188.21 1.188.21s-1.079-2.357-.244-2.538c.835-.181 2.056 1.992 2.056 1.992s-.463-1.208.486-1.26c.949-.052.822 1.805.8 1.917-.022.113.081-.599.641-.273.56.326-.217 6.096-2.587 4.175ZM73.808 59.462s.855 3.045.322 3.034c-.532-.012-.736-.503-.736-.503s-.123 2.055-.911 2.112c-.789.056-.693-.988-.693-.988s-.901 2.432-1.62 1.97c-.719-.46-.049-2.862-.049-2.862s-.525 1.183-1.233.55c-.71-.633.691-1.859.786-1.923.095-.064-.48.367-.647-.26-.166-.625 4.458-4.163 4.78-1.13Z"/><path fill="#51AEA5" d="M73.976 56.046s2.207-2.264 2.464-1.798c.257.467-.066.889-.066.889s1.84-.923 2.284-.268c.443.654-.508 1.094-.508 1.094s2.556-.437 2.516.416c-.039.853-2.453 1.475-2.453 1.475s1.287-.137 1.093.793c-.193.93-1.955.332-2.058.282-.104-.05.558.232.1.69-.46.457-5.836-1.775-3.372-3.573Z"/><path fill="#D45A41" d="M75.152 57.441a1.878 1.878 0 0 0-.198-.069c.356-.2.65-.514.82-.92a1.895 1.895 0 1 0-3.638-.572 1.894 1.894 0 1 0 .398 3.417 1.893 1.893 0 0 0 3.64.622 1.895 1.895 0 0 0-1.022-2.478Zm-1.714.083.055.018-.053.032c0-.017 0-.033-.002-.05Z"/><path fill="#241726" d="m70.83 63.1-.022-.002a.164.164 0 0 1-.14-.185c.013-.091.323-2.244 1.378-3.296a.164.164 0 1 1 .232.233c-.976.973-1.282 3.087-1.285 3.108a.164.164 0 0 1-.162.142ZM72.274 55.16a.164.164 0 0 1-.164-.163c-.003-.712-1.28-2.187-1.772-2.695a.164.164 0 1 1 .236-.228c.19.196 1.86 1.949 1.864 2.922 0 .09-.073.164-.163.164h-.001ZM75.737 57.533a.164.164 0 0 1-.123-.273c.589-.669 2.587-.345 2.813-.305.09.015.149.1.134.19a.162.162 0 0 1-.19.133c-.563-.097-2.114-.252-2.51.2a.164.164 0 0 1-.124.055ZM75.218 57.291c-.047-.02-.99-.421-1.768.034-.098-.929-1.045-1.51-1.087-1.535a.164.164 0 1 0-.17.282c.01.005.935.573.939 1.402 0 .029.01.055.022.078-.035.035-.072.07-.106.11-.476.562-.695 1.073-.651 1.519.038.386.26.573.286.593a.162.162 0 0 0 .228-.025.165.165 0 0 0-.022-.23c-.006-.005-.145-.125-.166-.382-.02-.242.063-.658.576-1.263.648-.766 1.741-.302 1.787-.282a.164.164 0 0 0 .216-.085.164.164 0 0 0-.084-.216Z"/><path fill="#FBFCFF" d="M70.455 57.56a.164.164 0 0 1-.163-.181c.037-.356.31-1.054 1.069-1.152a.164.164 0 0 1 .042.326c-.695.09-.784.853-.785.86a.164.164 0 0 1-.163.148ZM73.16 55.342a.164.164 0 0 1-.138-.254c.022-.032.522-.79 1.193-.845a.164.164 0 1 1 .027.327c-.51.042-.94.69-.944.697a.164.164 0 0 1-.138.075ZM73.596 59.325l-.024-.002a.164.164 0 0 1-.138-.187c.005-.035.13-.863.58-1.189a.687.687 0 0 1 .541-.123.164.164 0 1 1-.057.323.363.363 0 0 0-.29.067c-.281.202-.42.769-.45.97a.164.164 0 0 1-.162.14Z"/><path fill="#241726" d="M27.518 72.155a.164.164 0 0 1-.123-.055c-.02-.022-.497-.538-1.244-.184a.164.164 0 0 1-.14-.297c.781-.37 1.408.01 1.63.264a.164.164 0 0 1-.123.272ZM26.222 73.123a.163.163 0 0 1-.123-.055c-.02-.023-.496-.539-1.243-.184a.165.165 0 0 1-.14-.297c.78-.37 1.407.01 1.63.263a.164.164 0 0 1-.124.273ZM24.045 72.938a.164.164 0 0 1-.123-.056c-.02-.022-.495-.539-1.243-.184a.165.165 0 0 1-.14-.297c.78-.37 1.407.011 1.63.264a.164.164 0 0 1-.124.273ZM21.852 72.055a.164.164 0 0 1-.103-.292c.682-.55 1.37-.322 1.637-.124a.164.164 0 0 1-.194.265c-.025-.018-.587-.41-1.237.115a.164.164 0 0 1-.103.036ZM24.224 71.874a.165.165 0 0 1-.097-.296c.705-.516 1.382-.256 1.642-.047a.164.164 0 0 1-.206.256c-.023-.018-.57-.436-1.243.055a.16.16 0 0 1-.096.032ZM21.365 73.806a.165.165 0 0 1-.097-.296c.705-.516 1.382-.256 1.642-.047a.164.164 0 0 1-.205.257c-.023-.018-.57-.437-1.243.055a.16.16 0 0 1-.097.031ZM19.972 73.05a.164.164 0 0 1-.116-.28c.623-.623 1.327-.47 1.612-.303a.164.164 0 0 1-.166.283c-.028-.016-.62-.34-1.215.252a.162.162 0 0 1-.115.048ZM58.07 71.556a.164.164 0 0 1-.123-.055c-.02-.023-.496-.539-1.244-.184a.164.164 0 0 1-.14-.297c.78-.37 1.408.01 1.63.263a.164.164 0 0 1-.123.273ZM56.774 72.524a.163.163 0 0 1-.122-.056c-.02-.022-.497-.538-1.244-.184a.165.165 0 0 1-.14-.297c.78-.37 1.407.011 1.63.264a.164.164 0 0 1-.124.273ZM54.597 72.338a.164.164 0 0 1-.123-.055c-.02-.023-.496-.539-1.243-.184a.165.165 0 0 1-.14-.297c.78-.37 1.407.01 1.63.263a.164.164 0 0 1-.124.273ZM52.404 71.455a.164.164 0 0 1-.103-.292c.682-.549 1.37-.321 1.637-.124a.164.164 0 0 1-.194.265c-.026-.018-.587-.41-1.237.115a.164.164 0 0 1-.103.036ZM54.776 71.275a.165.165 0 0 1-.097-.297c.705-.516 1.382-.256 1.642-.046a.164.164 0 0 1-.206.256c-.023-.018-.57-.437-1.243.055a.162.162 0 0 1-.096.032ZM51.917 73.207a.165.165 0 0 1-.097-.297c.705-.516 1.383-.256 1.642-.046a.164.164 0 0 1-.205.256c-.023-.018-.57-.437-1.243.055a.161.161 0 0 1-.097.032ZM50.524 72.451a.164.164 0 0 1-.116-.28c.624-.624 1.327-.47 1.612-.303a.164.164 0 0 1-.166.283c-.025-.014-.618-.343-1.214.252a.163.163 0 0 1-.116.048ZM6.337 67.46c-.129 0-.258-.01-.385-.029A.164.164 0 1 1 6 67.107c.201.03.409.031.612.008a.165.165 0 0 1 .037.327 2.718 2.718 0 0 1-.312.018Zm.932-.167a.164.164 0 0 1-.055-.32c.189-.066.38-.154.568-.262a.164.164 0 1 1 .164.285 3.786 3.786 0 0 1-.623.288.162.162 0 0 1-.054.009Zm-1.922-.04a.166.166 0 0 1-.066-.014 3.06 3.06 0 0 1-.598-.35.164.164 0 0 1 .196-.263c.171.127.35.232.534.312a.164.164 0 0 1-.066.314Zm3.059-.605a.164.164 0 0 1-.103-.293c.163-.129.32-.273.47-.427a.164.164 0 0 1 .237.228c-.16.165-.329.318-.502.456a.163.163 0 0 1-.102.036Zm-4.113-.164a.163.163 0 0 1-.12-.052 5.14 5.14 0 0 1-.428-.525.165.165 0 0 1 .267-.192c.128.18.263.346.4.492a.164.164 0 0 1-.119.277Zm5.026-.777a.164.164 0 0 1-.13-.263c.129-.172.247-.35.35-.53a.164.164 0 0 1 .285.163c-.11.192-.236.382-.374.565a.164.164 0 0 1-.131.065Zm-5.792-.286a.164.164 0 0 1-.144-.084 4.289 4.289 0 0 1-.285-.62.164.164 0 1 1 .309-.112c.07.192.159.385.263.572a.164.164 0 0 1-.143.244Zm-.444-1.23a.164.164 0 0 1-.162-.135 3.774 3.774 0 0 1-.056-.644l.165-.038.164.02c0 .214.017.412.05.605a.164.164 0 0 1-.161.193Zm.013-1.306c-.01 0-.02 0-.03-.002a.164.164 0 0 1-.131-.193c.042-.22.104-.44.184-.657a.164.164 0 0 1 .308.114c-.074.2-.131.403-.17.605a.164.164 0 0 1-.16.133Zm.451-1.227a.165.165 0 0 1-.143-.244c.108-.195.232-.387.369-.57a.164.164 0 1 1 .263.198c-.128.17-.244.349-.345.531a.165.165 0 0 1-.144.085Zm3.26-.334h-.01a3.905 3.905 0 0 1-.678-.104.165.165 0 0 1 .077-.32c.215.052.424.084.62.096a.164.164 0 0 1-.01.328Zm.653-.045a.164.164 0 0 1-.037-.324c.215-.05.375-.139.464-.257a.164.164 0 1 1 .263.196c-.137.185-.357.313-.653.381a.17.17 0 0 1-.037.004Zm-1.928-.255a.167.167 0 0 1-.061-.012 5.028 5.028 0 0 1-.611-.295.165.165 0 0 1 .162-.285c.182.103.374.196.572.275a.164.164 0 0 1-.062.317Zm-1.201-.415a.164.164 0 0 1-.118-.279l.03-.03a4.303 4.303 0 0 1-.454-.42.164.164 0 1 1 .24-.224c.138.148.292.287.455.415.076-.067.154-.132.233-.194a.164.164 0 1 1 .203.258c-.165.13-.324.273-.472.425a.163.163 0 0 1-.117.05Zm3.77-.276a.164.164 0 0 1-.157-.12 1.39 1.39 0 0 0-.273-.507.164.164 0 1 1 .244-.22c.086.095.16.205.222.327.054.108.096.212.123.312a.164.164 0 0 1-.158.208Zm-2.739-.532a.164.164 0 0 1-.082-.306c.206-.12.415-.218.62-.293a.164.164 0 0 1 .113.309 3.613 3.613 0 0 0-.568.268.165.165 0 0 1-.083.022Zm-1.859-.383a.164.164 0 0 1-.137-.074 3.698 3.698 0 0 1-.322-.606.164.164 0 1 1 .303-.126c.08.19.178.377.293.552a.164.164 0 0 1-.137.254Zm3.74-.001a.164.164 0 0 1-.046-.007 1.51 1.51 0 0 0-.586-.043.164.164 0 1 1-.036-.327c.258-.028.501-.008.715.055a.164.164 0 0 1-.046.322Zm-4.241-1.204a.164.164 0 0 1-.16-.13 3.874 3.874 0 0 1-.08-.68.164.164 0 0 1 .328-.01c.006.212.03.422.073.622a.164.164 0 0 1-.161.198Zm-.066-1.307h-.01a.164.164 0 0 1-.155-.174c.013-.23.036-.455.07-.669a.164.164 0 0 1 .325.05 6.525 6.525 0 0 0-.067.637.164.164 0 0 1-.163.156Zm.205-1.294a.164.164 0 0 1-.158-.209c.064-.225.142-.44.233-.64a.165.165 0 0 1 .299.137 4.19 4.19 0 0 0-.216.593.164.164 0 0 1-.158.12Zm1.928-1.087-.018-.001a2.886 2.886 0 0 1-.676-.16.164.164 0 1 1 .113-.308c.193.071.394.118.6.141a.165.165 0 0 1-.019.328Zm.655-.01a.164.164 0 0 1-.024-.328c.22-.033.416-.1.551-.188a.165.165 0 0 1 .18.275 1.738 1.738 0 0 1-.707.24Zm-2.034-.089a.164.164 0 0 1-.134-.26c.042-.058.085-.115.13-.17a2.95 2.95 0 0 1-.452-.406.164.164 0 0 1 .243-.22c.13.143.275.272.43.381.036-.035.072-.069.11-.102a.164.164 0 0 1 .218.246 2.695 2.695 0 0 0-.41.462.164.164 0 0 1-.135.069Zm2.81-.67a.164.164 0 0 1-.13-.063.433.433 0 0 0-.04-.043 1.02 1.02 0 0 0-.43-.235.164.164 0 1 1 .089-.316c.22.061.417.17.569.314a.8.8 0 0 1 .07.076.165.165 0 0 1-.129.266Zm-1.832-.184a.164.164 0 0 1-.072-.312c.22-.107.446-.176.676-.207a.162.162 0 0 1 .184.142.164.164 0 0 1-.14.184 1.866 1.866 0 0 0-.576.176.166.166 0 0 1-.072.017Zm-1.697-.459a.164.164 0 0 1-.142-.082 3.93 3.93 0 0 1-.289-.62.164.164 0 0 1 .309-.113c.074.204.163.395.264.568a.164.164 0 0 1-.142.247Zm-.458-1.224a.164.164 0 0 1-.16-.13 7.398 7.398 0 0 1-.109-.663.164.164 0 1 1 .326-.038 7.182 7.182 0 0 0 .104.632.164.164 0 0 1-.161.199Zm-.148-1.303a.164.164 0 0 1-.164-.163v-.046c0-.217.012-.43.038-.63a.164.164 0 1 1 .326.041 4.69 4.69 0 0 0-.036.59v.042c0 .09-.072.165-.163.166h-.001Zm.171-1.296a.165.165 0 0 1-.157-.211c.067-.224.154-.439.258-.637a.165.165 0 0 1 .29.154c-.094.179-.173.373-.234.577a.164.164 0 0 1-.157.117Zm.61-1.151a.164.164 0 0 1-.126-.27c.148-.176.314-.337.496-.48a.165.165 0 0 1 .203.258 2.967 2.967 0 0 0-.446.432.164.164 0 0 1-.126.06Zm1.026-.809a.164.164 0 0 1-.074-.31c.368-.185.645-.243.657-.246a.164.164 0 0 1 .066.322c-.002 0-.249.053-.575.217a.16.16 0 0 1-.074.017ZM73.767 47.743h-.014a2.756 2.756 0 0 1-.68-.149.164.164 0 0 1 .109-.31c.197.07.399.114.599.131a.164.164 0 0 1-.014.328Zm.654-.032a.164.164 0 0 1-.03-.325c.197-.037.394-.1.586-.187a.165.165 0 0 1 .136.299c-.216.099-.44.17-.662.21a.162.162 0 0 1-.03.003Zm-1.885-.392a.165.165 0 0 1-.086-.025 3.768 3.768 0 0 1-.548-.413.164.164 0 1 1 .221-.243c.159.143.327.27.5.377a.164.164 0 0 1-.087.304Zm3.074-.139a.165.165 0 0 1-.096-.297 4.16 4.16 0 0 0 .48-.41.164.164 0 0 1 .23.235 4.46 4.46 0 0 1-.518.441.162.162 0 0 1-.096.031Zm-4.044-.737a.164.164 0 0 1-.13-.063 3.754 3.754 0 0 1-.374-.575.165.165 0 0 1 .29-.152c.094.178.209.354.342.525a.164.164 0 0 1-.129.265Zm4.982-.176a.164.164 0 0 1-.127-.267c.082-.103.164-.212.246-.326.046-.064.089-.127.129-.19a.164.164 0 0 1 .277.176 7.342 7.342 0 0 1-.396.546.163.163 0 0 1-.129.061Zm.692-1.111a.164.164 0 0 1-.152-.227c.082-.198.142-.398.18-.596a.164.164 0 0 1 .323.06 3.32 3.32 0 0 1-.2.661.165.165 0 0 1-.151.102Zm.233-1.282a.164.164 0 0 1-.164-.155 2.68 2.68 0 0 0-.104-.609.164.164 0 0 1 .316-.091c.065.224.104.454.116.683a.164.164 0 0 1-.156.172h-.008Zm-.358-1.252a.164.164 0 0 1-.146-.087 3.548 3.548 0 0 0-.344-.523.164.164 0 0 1 .258-.204c.146.184.272.377.376.573a.164.164 0 0 1-.144.241Zm-3.186-.757a.164.164 0 0 1-.004-.328c.184-.003.386-.039.6-.105a.164.164 0 1 1 .097.314 2.529 2.529 0 0 1-.69.12h-.003Zm-.628-.154a.163.163 0 0 1-.093-.029.735.735 0 0 1-.322-.623.92.92 0 0 1 .005-.101.162.162 0 0 1 .181-.146c.09.01.156.09.146.18a.633.633 0 0 0-.004.067c0 .152.06.27.18.353a.164.164 0 0 1-.093.3Zm3.009-.12a.164.164 0 0 1-.112-.044 4.608 4.608 0 0 0-.44-.364 5.12 5.12 0 0 1-.503.3.164.164 0 1 1-.15-.292c.178-.093.36-.204.541-.33a.165.165 0 0 1 .166-.013.165.165 0 0 1 .084.03c.185.13.362.276.526.43a.164.164 0 0 1-.112.283Zm-1.07-.756a.164.164 0 0 1-.076-.018c-.194-.101-.39-.183-.58-.244a.164.164 0 1 1 .1-.313c.209.067.42.156.631.265a.164.164 0 0 1-.075.31Zm1.017-.08a.164.164 0 0 1-.108-.288c.157-.138.313-.287.463-.444a.164.164 0 0 1 .237.227c-.157.164-.32.32-.484.464a.166.166 0 0 1-.108.04Zm-2.899-.172a.164.164 0 0 1-.088-.303c.164-.105.375-.158.627-.158.029-.002.067 0 .103.003.09.004.16.081.156.172-.005.09-.083.164-.173.156-.03-.002-.061-.005-.086-.003a.846.846 0 0 0-.45.107.164.164 0 0 1-.089.026Zm3.806-.776a.164.164 0 0 1-.127-.268c.132-.162.263-.335.39-.514a.165.165 0 0 1 .268.189c-.13.185-.266.364-.403.533a.164.164 0 0 1-.128.06Zm.757-1.072a.164.164 0 0 1-.14-.25 11.722 11.722 0 0 0 .32-.558.164.164 0 1 1 .293.148 4.766 4.766 0 0 1-.09.167c-.08.143-.16.281-.243.415a.165.165 0 0 1-.14.078Zm.573-1.177a.164.164 0 0 1-.157-.213c.063-.203.105-.409.125-.61a.164.164 0 1 1 .326.032c-.022.223-.068.45-.137.675a.164.164 0 0 1-.157.116Zm.124-1.298a.164.164 0 0 1-.163-.145 2.965 2.965 0 0 0-.138-.604.164.164 0 0 1 .31-.107c.076.221.128.447.154.672a.164.164 0 0 1-.163.184Zm-.416-1.235a.164.164 0 0 1-.143-.084c-.1-.177-.22-.352-.354-.521a.164.164 0 1 1 .256-.205c.146.183.275.372.384.565a.164.164 0 0 1-.143.245Zm-.813-1.028a.164.164 0 0 1-.114-.045 5.486 5.486 0 0 0-.486-.413.165.165 0 0 1 .198-.263c.183.138.356.286.516.438a.164.164 0 0 1-.114.283Zm-3.918-.22c-.32 0-.521-.216-.54-.577a.164.164 0 0 1 .157-.172c.086-.014.167.065.172.156.013.264.147.264.211.264.09 0 .173.071.175.16.002.09-.057.164-.146.168a.91.91 0 0 1-.029 0Zm.626-.238a.164.164 0 0 1-.09-.301c.157-.104.319-.237.48-.398a.165.165 0 0 1 .232 0 .165.165 0 0 1 0 .233 3.41 3.41 0 0 1-.532.44.163.163 0 0 1-.09.026Zm2.247-.334a.162.162 0 0 1-.085-.023 5.99 5.99 0 0 0-.565-.299.164.164 0 1 1 .138-.298c.201.093.402.199.596.315a.164.164 0 0 1-.084.305Zm-3.073-.465a.164.164 0 0 1-.121-.274c.155-.171.387-.276.689-.313a.164.164 0 0 1 .04.326c-.22.027-.387.098-.487.208a.164.164 0 0 1-.121.053Zm1.88-.082a.162.162 0 0 1-.05-.008l-.081-.025a.166.166 0 0 1-.067-.02 3.807 3.807 0 0 0-.465-.104.164.164 0 1 1 .05-.325c.14.022.284.053.432.092.1-.14.195-.286.282-.438a.164.164 0 1 1 .285.165c-.08.137-.165.27-.255.4a.164.164 0 0 1-.13.263Zm.538-1.169a.164.164 0 0 1-.151-.23c.084-.194.157-.395.219-.598a.165.165 0 0 1 .314.095 5.914 5.914 0 0 1-.232.634.164.164 0 0 1-.15.1Zm.379-1.254a.165.165 0 0 1-.162-.193c.038-.209.063-.422.077-.633.005-.09.084-.164.174-.154.09.006.16.084.154.174-.015.225-.042.45-.082.67a.165.165 0 0 1-.161.136Zm.073-1.307a.164.164 0 0 1-.163-.149 2.94 2.94 0 0 0-.122-.607.164.164 0 1 1 .313-.1c.068.213.114.44.136.676a.164.164 0 0 1-.148.179h-.016Zm-.398-1.237a.165.165 0 0 1-.14-.079 2.665 2.665 0 0 0-.38-.486.164.164 0 0 1 .235-.23c.164.167.308.351.426.545a.164.164 0 0 1-.14.25Zm-.907-.935a.165.165 0 0 1-.092-.028 4.02 4.02 0 0 0-.549-.312.164.164 0 0 1 .14-.297c.214.101.414.214.594.337a.164.164 0 0 1-.093.3Zm-1.182-.565a.17.17 0 0 1-.051-.008 6.41 6.41 0 0 0-.619-.168.164.164 0 1 1 .07-.321c.224.049.443.108.651.176a.165.165 0 0 1-.051.32Zm-1.283-.285-.022-.001a5.911 5.911 0 0 0-.639-.051.164.164 0 0 1 .002-.329c.011.003.266.001.679.054a.164.164 0 0 1-.02.327Z"/><path fill="#E38B72" d="M65.117 35.818s-3.5-5.88-2.12-5.556c1.378.324 2.48 4.033 2.48 4.033s.196-7.425 1.124-6.309c.927 1.117 0 4.919 0 4.919s-.009-6.128 1.154-4.919c1.164 1.21 0 5.382 0 5.382s1.164-5.147 1.72-4.15c.556.997-.834 5.17-.834 5.17s1.947-3.256 2.318-2.509c.37.748-3.204 5.199-3.204 5.199v3.152l-3.01-.527.372-3.885Z"/><path fill="#241726" d="M66.83 36.252a.164.164 0 0 1-.158-.208c.08-.29.212-1.123-.138-1.478-.197-.2-.539-.237-1.015-.112a.164.164 0 0 1-.084-.317c.598-.158 1.047-.09 1.333.2.555.562.234 1.745.22 1.795a.164.164 0 0 1-.158.12ZM66.6 33.069a.164.164 0 0 1-.163-.157c-.031-.682.11-2.581.115-2.662a.164.164 0 1 1 .328.024c-.001.02-.145 1.96-.115 2.623a.164.164 0 0 1-.157.171h-.007ZM67.756 33.532c-.01 0-.019 0-.028-.002a.164.164 0 0 1-.134-.19l.498-2.9a.164.164 0 0 1 .323.055l-.498 2.9a.164.164 0 0 1-.161.137Z"/><path fill="#DF4F3E" d="M63.808 36.667s.138 9.99-.565 10.269c-.704.278-7.456-3.936-7.456-3.936L40.02 44.183l-15.793 1.318S9.364 52.29 9.223 54.54c-.14 2.251 7.333 6.377 7.333 6.377l3.482-3.64-6.737-2.462 8.958-3.211c-1.796 6.52-2.446 12.004-2.446 12.004l12.744-.215 3.375 9.148 3.953-.339.753-8.944 1.286-.022.754 8.966 3.954.339 3.483-9.443 13.662-.229s-1.957-7.248-5.69-14.91c2.8.838 6.385 1.913 6.956 2.093.957.3 3.566-11.894 3.566-11.894l-4.8-1.492Z"/><path fill="#fff" d="m38.111 41.394 1.19 20.737-20.483.055.422 4.165 45.804-1.371-.453-4.194-22.795.923s-.702-21.101-1.335-20.996c-.633.106-2.35.681-2.35.681Z"/><path fill="#241726" d="M19.24 66.516a.164.164 0 0 1-.163-.148l-.423-4.165a.165.165 0 0 1 .163-.181l20.31-.055-1.18-20.564a.164.164 0 0 1 .112-.164c.07-.024 1.737-.581 2.375-.688a.243.243 0 0 1 .16.044c.626.514 1.193 15.938 1.36 20.943l22.631-.917c.083-.001.16.06.17.147l.453 4.194a.164.164 0 0 1-.158.182l-45.805 1.372h-.005ZM19 62.35l.388 3.833 45.474-1.362-.417-3.865-22.642.918a.174.174 0 0 1-.118-.044.165.165 0 0 1-.053-.115c-.262-7.88-.8-19.742-1.231-20.823-.563.113-1.741.494-2.119.619l1.183 20.61a.165.165 0 0 1-.164.174L19 62.35Z"/><path fill="#E38B72" d="M24.065 16.764s11.59-7.27 16.936-3.05c5.346 4.221 17.481 14.274-2.658 20.845-20.139 6.57-19.202-14.56-14.278-17.795Z"/><path fill="#F4F1E3" d="M24.5 18.787s-6.484 10.773 3.223 15.134c9.706 4.36 1.617-8.928 8.792-8.998 7.174-.07 6.652 9.037 9.777 3.587 4.431-7.73-7.788-13.664-5.96-13.946 1.83-.28 3.092-.77 3.639.3 1.617 3.165 20.538 5.909 18.428 16.46-2.11 10.55-8.581 18.146-27.15 18.71-18.57.562-23.563-11.255-18.78-20.117 4.783-8.863 2.271-10.415 3.819-10.555 1.547-.14 4.213-.575 4.213-.575Z"/><path fill="#241726" d="M37.253 27.201c-.551 0-2.053-1.163-2.701-1.687a.164.164 0 0 1 .206-.255c.934.754 2.067 1.541 2.417 1.613-.027-.518-1.046-2.95-2.075-5.134a.164.164 0 1 1 .297-.14c.696 1.476 2.291 4.964 2.078 5.463a.223.223 0 0 1-.222.14Z"/><path fill="#241726" d="M38.039 32.126a.708.708 0 0 1-.353-.105c-1.55-.888-3.112-3.988-3.178-4.12a.164.164 0 1 1 .294-.146c.016.031 1.583 3.143 3.047 3.981.163.093.247.061.297.03.604-.392.538-3.444.355-5.276a.164.164 0 0 1 .327-.033c.05.506.466 4.956-.503 5.584a.52.52 0 0 1-.286.085ZM29.1 26.638c-1.94 0-2.903-3.763-2.944-3.926a.164.164 0 1 1 .319-.08c.01.038.98 3.808 2.712 3.674.293-.021.5-.136.633-.35.57-.915-.342-3.2-.351-3.222a.164.164 0 0 1 .304-.124c.041.1.983 2.464.326 3.519-.19.305-.489.475-.888.505a1.628 1.628 0 0 1-.112.004ZM40.592 23.7a.99.99 0 0 1-.205-.023c-1.742-.372-2.189-3.59-2.207-3.726a.164.164 0 0 1 .14-.184c.09-.017.173.05.185.14.005.032.434 3.125 1.95 3.449.23.049.328-.025.38-.085.436-.5-.1-2.629-.54-3.853a.164.164 0 1 1 .31-.111c.123.342 1.183 3.372.477 4.18a.623.623 0 0 1-.49.213Z"/><path fill="#DF4F3E" d="M27.968 30.32a1.512 1.512 0 1 0-1.555-2.595 1.512 1.512 0 0 0 1.555 2.594ZM43.654 25.043a1.512 1.512 0 1 0 0-3.024 1.512 1.512 0 0 0 0 3.024ZM38.057 12.29S34.39 6.354 28.242 3.26c-6.146-3.095-15.15 7.526-15.15 7.526l8.09-2.251s-1.527 7.48-.894 8.302c.632.822 17.77-4.546 17.77-4.546Z"/><path fill="#fff" d="M12.32 13.037a2.16 2.16 0 1 0 0-4.319 2.16 2.16 0 0 0 0 4.32Z"/><path fill="#241726" d="M12.32 13.202a2.326 2.326 0 0 1-2.324-2.324 2.327 2.327 0 0 1 2.324-2.324 2.327 2.327 0 0 1 2.324 2.324 2.326 2.326 0 0 1-2.324 2.324Zm0-4.32c-1.1 0-1.996.896-1.996 1.996s.896 1.995 1.996 1.995 1.995-.895 1.995-1.995-.895-1.996-1.995-1.996Z"/><path fill="#fff" d="M19.24 16.394S39.73 8.62 41.413 10.38c1.683 1.762 2.556 4.484 2.556 4.484s-23.844 7.84-24.336 6.805c-.493-1.037-.395-5.275-.395-5.275Z"/><path fill="#241726" d="M19.97 21.926c-.396 0-.446-.104-.485-.187-.503-1.06-.414-5.174-.41-5.349a.165.165 0 0 1 .106-.15c2.108-.799 20.643-7.761 22.352-5.974 1.69 1.77 2.557 4.435 2.593 4.548a.164.164 0 0 1-.104.206c-.06.02-6.032 1.982-11.988 3.792-8.463 2.573-11.162 3.114-12.064 3.114Zm-.198-.348c.944.466 15.12-3.905 23.989-6.818-.212-.597-1.056-2.79-2.465-4.266-1.176-1.231-13.696 2.909-21.894 6.015-.011.665-.047 4.14.37 5.069Z"/><path fill="#E38B72" d="M20.805 27.587a2.226 2.226 0 1 0-3.148-3.148 2.226 2.226 0 0 0 3.148 3.148ZM48.018 20.032a2.226 2.226 0 1 0 0-4.452 2.226 2.226 0 0 0 0 4.452Z"/><path fill="#241726" d="M19.889 26.895a.164.164 0 0 1-.162-.14c-.173-1.116-.485-1.435-.716-1.506-.36-.11-.756.305-.76.309a.164.164 0 0 1-.233.008.163.163 0 0 1-.008-.232c.022-.023.539-.57 1.096-.4.467.143.785.74.945 1.771a.164.164 0 0 1-.162.19ZM47.691 19.302a.164.164 0 0 1-.157-.118c-.304-1.04-.277-1.809.079-2.284.334-.446.831-.451.852-.451a.164.164 0 0 1 .001.328.802.802 0 0 0-.594.325c-.283.383-.291 1.071-.023 1.99a.164.164 0 0 1-.158.21Z"/><path fill="#F4F1E3" d="M18.719 5.6s2.11 2.794 4.923 1.738c2.814-1.055 1.759-4.009 3.588-1.195 1.828 2.813 6.372.909 6.307.85-.065-.058-3.635-4.086-6.659-5-3.024-.915-8.16 3.607-8.16 3.607Z"/><path fill="#E38B72" d="M18.817 58.227s3.032 1.552 2.02 4.375c-1.013 2.823-6.576 4.51-5.441 2.853.685-1.002 3.798-1.952 3.798-1.952s-4.076 1.34-4.85.475c-.425-.475 3.879-1.165 4.044-1.168.166-.002-2.465.329-3.098-.623s3.045.788 3.527-1.058c.482-1.846-.836-1.74-.836-1.74l.836-1.162Z"/><path fill="#241726" d="M21.201 55.86s39.154-2.862 39.224-2.65c.07.21 1.043 2.67 1.043 2.67l-40.69 1.979.423-1.999Z"/><path fill="#E1AF01" d="m36.352 53.533 7.337-.626v5.32l-6.592.664-.745-5.358Z"/><path fill="#241726" d="m38.186 54.697 3.669-.312v2.66l-3.296.332-.373-2.68ZM21.181 8.698a.164.164 0 0 1-.044-.322c.951-.265 3.013-.156 3.1-.15.09.004.16.082.155.172a.162.162 0 0 1-.173.155c-.02 0-2.095-.11-2.994.139a.163.163 0 0 1-.044.006ZM36.116 14.54a.164.164 0 0 1-.149-.233c.18-.394.412-.614.69-.653.408-.057.732.31.745.327a.164.164 0 0 1-.248.214c-.062-.069-.262-.243-.452-.216-.199.03-.347.269-.436.465a.164.164 0 0 1-.15.096ZM37.862 15.523a.164.164 0 0 1-.15-.232c.18-.395.412-.614.69-.654.409-.058.732.311.746.327a.164.164 0 0 1-.249.215c-.06-.07-.262-.242-.452-.217-.198.03-.346.269-.435.465a.164.164 0 0 1-.15.096ZM34.068 15.01a.164.164 0 0 1-.15-.232c.18-.394.412-.614.69-.654.41-.057.732.311.746.327a.164.164 0 0 1-.249.215c-.06-.07-.258-.248-.452-.216-.198.029-.346.268-.435.464a.164.164 0 0 1-.15.096ZM35.797 15.901a.164.164 0 0 1-.15-.232c.18-.394.412-.614.69-.654.41-.059.732.311.746.327a.164.164 0 0 1-.249.215c-.06-.07-.258-.25-.452-.216-.198.029-.346.268-.435.464a.164.164 0 0 1-.15.096ZM33.68 16.587a.164.164 0 0 1-.15-.232c.18-.394.412-.614.69-.654.41-.059.732.311.745.327a.164.164 0 0 1-.248.215c-.061-.07-.26-.248-.452-.216-.199.029-.346.268-.436.464a.164.164 0 0 1-.15.096Z"/><path fill="#fff" d="m63.54 36.088-.186 1.731 5.688 1.824.71-1.979-6.212-1.576Z"/><path fill="#241726" d="M69.042 39.807a.168.168 0 0 1-.05-.008l-5.688-1.824a.165.165 0 0 1-.113-.174l.185-1.73a.164.164 0 0 1 .204-.142l6.213 1.577a.163.163 0 0 1 .114.214l-.71 1.979a.165.165 0 0 1-.155.108Zm-5.51-2.104 5.409 1.735.596-1.658-5.854-1.486-.151 1.41Z"/><path fill="#fff" d="m19.01 55.899-3.844 4.72 1.54 1.09 4.332-5.104-2.028-.706Z"/><path fill="#241726" d="M16.706 61.874a.165.165 0 0 1-.095-.03l-1.54-1.091a.165.165 0 0 1-.033-.238l3.845-4.72a.163.163 0 0 1 .181-.051l2.028.706a.164.164 0 0 1 .071.262l-4.332 5.103a.163.163 0 0 1-.125.059Zm-1.302-1.288 1.274.902 4.08-4.806-1.693-.59-3.661 4.494ZM34.97 48.895c-.234 0-.48-.02-.737-.065-1.458-.25-2.443-.849-3.06-1.52l-.022.027c-.504.604-1.66 1.52-3.732.87-1.855-.582-2.702-1.6-3.023-2.547-.392.475-.876.888-1.4 1.082-.594.22-1.485.245-2.35-.88-.9-1.17-1.064-2.14-.992-2.832-.225.03-.456.042-.688.028-.998-.058-1.748-.568-2.112-1.436-.589-1.398-.096-2.748.585-3.587-.467-.291-1.012-.856-1.139-1.928-.16-1.357.58-2.522 1.427-3.263a2.482 2.482 0 0 1-.877-1.207c-.223-.64-.2-1.194.064-1.645.443-.753 1.397-.929 1.438-.936a.164.164 0 0 1 .057.323c-.009.002-.849.159-1.213.78-.213.365-.225.826-.036 1.37.194.558.522.895.835 1.098.397-.3.8-.504 1.129-.59.603-.156.788.121.84.248.1.239.074.47-.07.65-.221.276-.7.398-1.223.307a2.241 2.241 0 0 1-.648-.215c-.805.678-1.545 1.78-1.396 3.041.115.98.621 1.474 1.034 1.717a2.55 2.55 0 0 1 .635-.486c.468-.24.87-.18 1.075.156.183.3.082.517.006.62-.216.287-.761.383-1.326.23a2.147 2.147 0 0 1-.314-.111c-.631.755-1.12 2.02-.58 3.302.401.955 1.215 1.199 1.828 1.235.242.014.488-.003.726-.043.039-.165.09-.306.14-.423.26-.598.76-1.045 1.216-1.088.224-.02.41.06.525.228.126.184.128.406.005.623-.216.38-.846.766-1.605.94-.09.626.033 1.548.915 2.695.497.647 1.045.937 1.627.858.682-.09 1.304-.653 1.756-1.26a2.808 2.808 0 0 1 .033-1.28c.155-.548.477-.86.8-.778.07.018.238.09.253.37.02.387-.265 1.1-.733 1.763.232.918.997 1.97 2.873 2.557 1.892.594 2.93-.225 3.382-.766l.06-.074c-.463-.604-.65-1.24-.63-1.715.023-.595.343-.992.834-1.037.27-.024.491.103.625.359.267.508.147 1.531-.418 2.384.568.639 1.504 1.22 2.919 1.463 2.117.365 3.323-1.046 3.744-1.668a4.55 4.55 0 0 0 .314-.545c-.45-.66-.66-1.33-.515-1.732a.574.574 0 0 1 .49-.384.55.55 0 0 1 .57.26c.234.378.155 1.088-.167 1.823.102.137.217.275.344.412.53.569 1.97 1.833 3.934 1.281 1.764-.495 2.62-2.01 2.853-3.305-.707-.5-1.171-1.086-1.256-1.54-.073-.39.124-.682.527-.782.48-.118.866.19 1.033.826.095.36.116.827.047 1.335.884.581 2.147 1.033 3.558.85 1.22-.159 1.735-1.26 1.95-2.157.143-.59.185-1.223.154-1.811-.844-.594-1.461-1.366-1.576-1.887-.084-.38.091-.567.203-.644.27-.187.559-.192.812-.018.478.328.798 1.284.879 2.369.489.32 1.047.574 1.608.67 1.091.187 1.962-.228 2.59-1.234 1.062-1.704.56-3.02.11-3.704-.383.012-.739-.04-1.044-.142-.573-.19-.929-.546-.953-.952-.011-.187.073-.33.231-.392.407-.16 1.214.278 1.799.979.042.05.087.107.134.172.915-.073 1.975-.528 2.827-1.54 1.084-1.286.472-3.063-.418-4.16-.277.158-.525.2-.681.207-.508.02-.993-.238-1.154-.623a.601.601 0 0 1 .16-.703c.323-.299.912-.111 1.538.486.065.062.13.128.194.198.36-.3.66-.805.871-1.48.554-1.77-.643-3.178-1.789-3.732a1.6 1.6 0 0 1-.475.738c-.465.41-1.147.524-1.518.255-.127-.09-.395-.364-.154-.935.26-.614.994-.813 1.885-.519.006-.351-.105-.748-.333-1.17-.754-1.394-2.01-1.816-2.962-1.8-.015.119-.041.238-.08.356-.183.561-.602.975-.996.984-.246 0-.443-.147-.545-.419-.154-.405.072-.803.588-1.039.208-.095.45-.161.713-.193-.022-.373-.19-.843-.753-1.274-1.78-1.365-3.486.242-3.557.311a.164.164 0 0 1-.228-.236c.019-.02 1.979-1.874 3.985-.336.54.414.845.95.882 1.513 1.108-.018 2.465.539 3.242 1.977.32.59.403 1.072.37 1.454 1.283.584 2.664 2.162 2.039 4.164-.264.845-.624 1.34-.972 1.629.923 1.146 1.657 3.065.4 4.559-.86 1.02-1.925 1.514-2.876 1.635.464.786.883 2.165-.202 3.906-.878 1.408-2.075 1.53-2.924 1.384a4.497 4.497 0 0 1-1.534-.596c.01.561-.042 1.14-.17 1.67-.34 1.409-1.131 2.263-2.229 2.405-1.397.181-2.704-.233-3.66-.823-.29 1.37-1.216 2.914-3.055 3.43-2.136.6-3.693-.76-4.263-1.373a5.135 5.135 0 0 1-.263-.306c-.078.145-.165.29-.26.431-.405.6-1.483 1.873-3.334 1.873Zm-3.742-4.269-.036.002c-.319.029-.52.3-.536.723-.016.395.132.914.497 1.422.446-.725.552-1.563.344-1.96-.083-.158-.187-.187-.269-.187Zm7.188-.126a.363.363 0 0 0-.052.004c-.116.015-.188.069-.224.169-.088.245.033.724.362 1.26.218-.583.252-1.093.11-1.322a.212.212 0 0 0-.196-.11Zm-13.397-.986c-.092 0-.272.178-.38.556-.06.213-.093.483-.073.782.137-.224.247-.441.325-.63.198-.482.162-.68.141-.707a.062.062 0 0 0-.013-.001Zm20.297-.883a.462.462 0 0 0-.11.015c-.238.058-.326.182-.284.402.06.32.417.792.984 1.226a3.074 3.074 0 0 0-.064-1.038c-.062-.236-.21-.604-.526-.604Zm-24.18-1.129c-.012 0-.024 0-.038.002-.288.027-.706.342-.945.892a2.12 2.12 0 0 0-.079.21c.59-.163 1.077-.457 1.237-.74.08-.143.045-.226.01-.276-.015-.023-.06-.088-.185-.088Zm29.784-2.48a.423.423 0 0 0-.238.087c-.03.02-.118.081-.07.303.093.419.567 1.019 1.22 1.525-.105-.89-.377-1.617-.71-1.846a.354.354 0 0 0-.202-.069Zm-32.944-1.085c.064.024.119.04.16.052.466.126.863.042.978-.111.018-.024.072-.096-.023-.252-.148-.242-.468-.126-.645-.035-.15.076-.31.194-.47.346Zm36.946-2.207a.198.198 0 0 0-.072.01c-.013.006-.028.012-.025.068.016.264.295.516.729.66.208.07.443.112.694.125-.517-.607-1.086-.863-1.326-.863ZM18.32 32.798c.175.073.322.106.407.12.393.069.768-.009.91-.187.07-.087.078-.192.024-.32-.06-.146-.363-.08-.454-.056-.257.067-.57.22-.887.443Zm39.458-2.843a.227.227 0 0 0-.16.054c-.105.097-.132.21-.08.335.092.22.423.446.836.421a1.16 1.16 0 0 0 .477-.128 4.295 4.295 0 0 0-.144-.146c-.354-.338-.707-.536-.93-.536Zm-.599-4.979c-.355 0-.674.12-.814.45-.075.178-.129.417.043.541.219.158.728.1 1.11-.236.194-.17.322-.38.385-.62a2.24 2.24 0 0 0-.724-.135Zm-2.864-3.14c-.216.03-.407.084-.56.154-.166.076-.543.29-.416.623.079.21.194.212.23.207.215-.004.54-.296.692-.757.019-.06.04-.137.054-.227Z"/><path fill="#fff" d="m34.686 71.81 5.517-.428-.182 1.577-4.64.355-.695-1.504Z"/><path fill="#241726" d="M40.322 71.268a.162.162 0 0 0-.132-.05l-5.517.428a.165.165 0 0 0-.136.233l.695 1.504a.164.164 0 0 0 .15.096h.012l1.033-.08c.226 1.723-6.02 2.009-2.06 2.814 3.598.732 3.706-1.933 3.67-2.654l.162 2.056 1.302-.386-.352-2.039.884-.067a.164.164 0 0 0 .151-.145l.183-1.577a.165.165 0 0 0-.045-.133Zm-.449 1.538-4.39.336-.549-1.187 5.083-.394-.144 1.245Z"/><path fill="#fff" d="m42.197 70.924 5.563.225-.417 1.628-5.146.182v-2.035Z"/><path fill="#241726" d="m46.157 72.983 1.192-.042a.164.164 0 0 0 .153-.123l.418-1.629a.165.165 0 0 0-.153-.205l-5.564-.225a.185.185 0 0 0-.12.046.164.164 0 0 0-.05.118v2.036a.164.164 0 0 0 .164.164h.006l1.197-.043-.336 2.148 1.301.387.162-2.057c-.035.721.073 3.387 3.672 2.655 4.023-.818-2.413-1.209-2.042-3.23Zm-3.796-1.889 5.19.21-.336 1.313-4.854.172v-1.695Z"/></g><defs><clipPath id="a"><path fill="#fff" d="M.667 0h80v80h-80z"/></clipPath></defs></svg>